<svg width="40" height="40" viewBox="0 0 40 40" fill="none" xmlns="http://www.w3.org/2000/svg">
<path d="M13.3333 0L0.8 4.22222C0.333333 4.37778 0 4.77778 0 5.28889V38.8889C0 39.1836 0.117063 39.4662 0.325437 39.6746C0.533811 39.8829 0.816426 40 1.11111 40L1.46667 39.9333L13.3333 35.3333L26.6667 40L39.2 35.7778C39.6667 35.6222 40 35.2222 40 34.7111V1.11111C40 0.816426 39.8829 0.533811 39.6746 0.325437C39.4662 0.117063 39.1836 0 38.8889 0L38.5333 0.0666666L26.6667 4.66667L13.3333 0ZM11.1111 5.44444V31.4444L4.44444 34.0222V7.68889L11.1111 5.44444ZM15.5556 5.48889L24.4444 8.6V34.5111L15.5556 31.4V5.48889ZM35.5556 6V32.3111L28.8889 34.5556V8.57778L35.5556 6ZM9.91111 7.33333L5.71111 8.82222V13.6L9.91111 12.1111V7.33333ZM9.91111 13.4444L5.71111 14.9333V19.7111L9.91111 18.2222V13.4444ZM9.91111 19.5556L5.71111 21.0444V25.8222L9.91111 24.3333V19.5556ZM9.91111 25.6667L5.71111 27.1556V31.9333L9.91111 30.4444V25.6667Z" fill="#4A69A6"/>
</svg>
